<svg version="1.1" id="Layer_1" xmlns="http://www.w3.org/2000/svg" xmlns:xlink="http://www.w3.org/1999/xlink" x="0px" y="0px"
	 width="100%" viewBox="0 0 512 512" enable-background="new 0 0 512 512" xml:space="preserve">
<path fill="#000000" opacity="1.000000" stroke="none" 
	d="
M408.006622,341.060028 
	C402.524567,345.555115 396.352295,348.190704 390.511078,351.363129 
	C387.370972,353.068542 385.633545,355.167816 386.113495,358.887756 
	C386.278687,360.168030 386.312073,361.741455 385.722412,362.800568 
	C379.160492,374.586212 376.189880,388.377411 365.709534,398.002472 
	C361.765381,401.624725 357.763123,405.069916 353.286163,408.003540 
	C350.000336,410.156616 347.109955,410.199280 344.460815,407.060822 
	C341.963837,404.102600 338.949066,403.502869 335.076843,404.034760 
	C319.797729,406.133453 305.712891,401.400909 292.095734,395.343903 
	C264.358429,383.006195 238.002090,368.014343 211.763535,352.814301 
	C203.839249,348.223755 195.742828,343.931061 187.747711,339.461731 
	C185.314102,338.101349 183.052002,337.701782 180.192261,338.669189 
	C175.446838,340.274506 172.907852,338.757507 171.817642,333.887939 
	C171.171677,331.002625 169.367996,329.701324 166.979950,328.710419 
	C159.737457,325.705170 152.491058,322.819550 144.410797,322.967072 
	C141.636124,323.017700 138.849594,322.417938 135.727783,322.078217 
	C137.121353,316.174744 141.781387,313.801880 145.530151,310.758881 
	C149.299591,307.699097 153.358047,304.995392 158.329971,301.379150 
	C151.247955,299.656464 145.712128,303.179474 139.591919,301.887543 
	C139.661133,294.437042 146.183456,290.508514 148.562103,284.692505 
	C146.868179,281.124084 141.668777,283.568817 140.347382,279.209930 
	C146.713531,276.859039 148.023010,269.066101 154.532181,266.299835 
	C157.549805,265.017395 159.203705,261.233398 161.062057,258.251831 
	C163.170609,254.868805 162.582489,252.665161 158.452057,251.826721 
	C157.477890,251.628983 156.494263,251.359116 155.592178,250.951584 
	C154.099533,250.277267 152.242447,249.753342 152.078491,247.793304 
	C151.907227,245.745743 153.764801,245.097656 155.192078,244.320328 
	C160.189896,241.598404 164.781387,238.306732 168.991760,234.496414 
	C170.441162,233.184753 172.038193,231.885696 172.442703,229.310623 
	C168.457382,226.572174 163.640381,225.715271 159.264465,223.894455 
	C141.498627,216.502090 125.396904,206.766190 113.170700,191.511032 
	C112.028992,190.086472 110.892960,188.611328 110.043579,187.006546 
	C106.471848,180.258347 108.602730,176.410355 116.065376,176.720230 
	C126.087196,177.136398 135.798386,175.373093 145.558792,173.374893 
	C139.448013,177.451019 132.281616,177.391541 125.431877,178.704483 
	C130.755783,182.865433 130.706909,182.492950 140.783264,181.170898 
	C153.060791,179.560089 163.798050,174.315720 173.718155,167.560760 
	C188.371750,157.582626 201.032944,145.282288 212.375656,131.631241 
	C218.222183,124.594940 224.000092,117.538071 230.783279,111.277473 
	C245.144653,98.022545 262.565704,95.718559 280.920837,96.201340 
	C285.067688,96.310410 289.258759,97.595657 294.073883,96.021721 
	C290.352600,91.490822 285.456238,91.672096 281.688416,91.876656 
	C273.011047,92.347755 264.286163,91.352104 255.588699,93.530113 
	C246.338654,95.846489 237.985107,99.851868 230.663422,105.498260 
	C224.801849,110.018646 219.862534,115.806038 214.808441,121.354370 
	C199.564285,138.089279 184.344604,154.911087 164.467545,166.503693 
	C163.480347,167.079437 162.592407,167.906128 160.041504,167.591965 
	C168.088837,163.384567 167.735611,155.351608 170.876190,149.128189 
	C180.155991,130.739227 195.078979,119.405396 214.627441,113.885887 
	C217.334351,113.121597 219.571121,112.010048 221.423889,110.028702 
	C236.404068,94.009010 255.326080,88.665779 276.591766,89.509804 
	C281.743652,89.714272 286.871765,89.772873 291.947540,90.946823 
	C295.756317,91.827721 297.746948,93.637566 297.425598,97.828712 
	C297.250824,100.108078 297.848022,102.446121 298.092133,104.758224 
	C298.585541,109.431290 300.494202,113.445862 305.329163,114.429535 
	C310.164917,115.413376 314.105103,112.881691 316.821686,108.926781 
	C322.006775,101.378044 325.212860,100.770477 332.320862,106.609673 
	C340.472839,113.306488 343.427002,122.441856 344.371002,132.565842 
	C345.265381,142.158600 342.415497,151.370071 341.813385,160.806412 
	C341.357544,167.951172 339.971924,174.944626 338.067596,181.860535 
	C336.151947,188.817429 332.935791,194.889450 327.093353,199.273849 
	C324.399902,201.295120 323.031189,203.472900 324.243835,206.928558 
	C324.590607,207.916718 324.523438,209.576324 323.907440,210.294525 
	C317.910767,217.286240 321.949829,224.416565 323.531036,231.451691 
	C324.107971,234.018692 325.278351,236.477646 326.375519,238.896271 
	C327.874695,242.201111 327.511871,245.107376 324.749237,247.476746 
	C320.741333,250.914093 321.625000,254.329041 324.565186,258.058594 
	C326.319916,257.538147 326.888306,254.321075 329.379791,255.821045 
	C331.255157,256.950073 331.927917,258.856995 332.255463,260.848572 
	C333.306915,267.241791 329.341095,273.916687 323.127014,276.357666 
	C318.228333,278.281952 317.221649,280.378937 319.078857,285.164520 
	C321.229248,290.705475 322.871887,296.439758 326.265717,301.480927 
	C328.831573,305.292206 329.381775,309.901123 329.785858,314.359406 
	C330.267151,319.669159 332.852783,323.745148 336.364410,327.430298 
	C337.272552,328.383331 338.634521,329.171295 338.179443,330.714233 
	C337.713470,332.294098 336.177917,332.168823 334.853271,332.339874 
	C330.392181,332.916046 327.161469,338.078369 328.579254,342.361298 
	C329.432770,344.939636 331.303101,345.014008 333.394043,344.084106 
	C340.247620,341.036316 347.162628,338.228394 354.711243,337.351349 
	C355.627869,337.244843 356.605743,336.617920 357.318024,335.971008 
	C361.808533,331.892517 366.663666,332.250519 371.612671,334.812805 
	C373.108521,335.587280 374.335083,335.731018 375.819000,334.970459 
	C380.854553,332.389465 386.023895,330.053192 390.958344,327.294647 
	C401.173615,321.583923 406.430511,311.499207 404.335632,302.163177 
	C401.974060,291.638336 390.911926,282.178680 380.155121,281.277374 
	C363.677429,279.896729 350.793579,286.784515 339.945496,298.482574 
	C338.705078,299.820190 337.566681,301.253784 336.299591,302.564178 
	C336.024536,302.848663 335.399414,302.794647 334.954041,302.892426 
	C331.393158,294.411194 344.053406,275.444214 358.259705,267.817505 
	C378.721313,256.832611 406.033600,263.617340 418.440796,282.948029 
	C429.331146,299.915466 428.758850,326.469666 408.006622,341.060028 
M303.163086,166.651794 
	C298.435760,165.552109 294.487549,166.386688 291.643219,170.784424 
	C289.514191,174.076263 286.658508,174.135269 284.558411,170.873627 
	C283.008057,168.465851 280.100128,166.200607 281.588287,162.863342 
	C283.137543,159.389130 286.501282,161.117004 289.161560,160.908081 
	C290.872955,160.773666 292.561829,160.426270 293.280426,158.623001 
	C294.035736,156.727707 292.742584,155.477676 291.562744,154.289871 
	C289.754089,152.468979 287.617859,151.341690 285.020142,150.947403 
	C282.248474,150.526703 279.996735,149.003082 280.839844,145.939117 
	C281.717407,142.750153 284.492218,138.204514 287.059814,139.394119 
	C293.673248,142.458206 294.143341,137.838959 295.925415,134.168777 
	C296.278320,133.441986 296.824219,132.672165 297.489868,132.256363 
	C301.585114,129.698166 300.221466,126.803131 298.084778,123.870361 
	C294.597992,119.084534 292.276489,113.809700 291.105377,107.998955 
	C290.506531,105.027550 289.408173,102.297554 286.102631,100.528412 
	C285.119476,103.190117 282.987915,102.984100 280.774597,102.982597 
	C273.955292,102.977959 267.125458,102.754906 260.337311,103.767738 
	C245.578323,105.969849 234.987442,114.660492 225.677109,125.585213 
	C217.591217,135.073196 210.523239,145.458939 201.052200,153.740021 
	C198.919205,155.605026 196.900543,158.108246 194.086624,158.339859 
	C190.513184,158.634003 188.473969,160.912781 186.005951,162.795837 
	C175.461838,170.840912 164.734695,178.478958 151.743057,182.352585 
	C147.126953,183.728958 143.510986,187.502853 138.401184,188.437500 
	C140.415329,192.774353 144.115601,192.720184 147.109787,193.790207 
	C169.164764,201.671906 191.142181,202.334305 213.484344,194.305145 
	C228.335739,188.967972 243.293869,183.720947 258.783661,180.396805 
	C269.029358,178.198074 279.354218,176.405640 289.919800,176.748428 
	C293.572815,176.866943 297.133759,178.213989 300.836578,177.537766 
	C303.669128,177.020477 305.791504,175.557541 306.683197,172.733261 
	C307.567627,169.931992 305.805878,168.390625 303.163086,166.651794 
M309.217926,365.448639 
	C313.972473,366.042633 318.717163,367.556885 323.493378,365.536377 
	C325.767548,364.574310 327.697357,363.259583 327.602570,360.495636 
	C327.518066,358.030243 327.329773,354.091156 325.282593,353.945099 
	C320.419678,353.598145 319.198242,349.724243 316.717316,347.116699 
	C311.520599,341.654785 311.606964,341.572601 306.880402,346.980347 
	C304.008850,345.097260 300.850464,343.651062 297.528992,342.603119 
	C293.232727,341.247650 288.804810,340.050385 285.194397,337.303467 
	C281.757660,334.688721 278.841187,332.626556 276.803894,339.203400 
	C268.101929,329.530640 254.703415,329.286407 245.625137,319.501129 
	C244.838394,326.726959 241.248550,325.390381 237.922333,323.819275 
	C232.402237,321.212036 228.863876,316.663574 226.378647,311.192963 
	C225.436890,309.119934 224.859116,306.700348 221.908875,306.384399 
	C215.867111,305.737335 210.366013,303.318878 204.796936,301.091125 
	C199.369659,298.920105 193.796005,297.227570 187.853256,297.391724 
	C186.339874,297.433533 184.635635,297.690613 184.561646,299.663513 
	C184.502106,301.251678 186.280701,302.460297 187.171234,302.211060 
	C194.554199,300.144989 198.109985,305.798981 203.315521,309.026123 
	C214.758392,316.119995 226.587692,322.650635 238.202896,329.510223 
	C260.859192,342.890259 283.410797,356.482697 309.217926,365.448639 
M249.375092,359.101044 
	C254.628769,361.193420 260.037933,362.851501 265.118042,365.433289 
	C275.939972,370.933197 286.793854,376.378418 298.168884,380.702576 
	C305.215668,383.381348 312.541931,384.987885 319.966858,385.678009 
	C325.477509,386.190247 329.778748,382.955658 329.484650,379.739594 
	C329.143158,376.005493 325.680267,374.792664 319.291168,375.694061 
	C315.046478,376.292908 311.007477,378.573090 306.555176,377.474884 
	C294.681244,374.546112 283.473785,369.972321 273.219696,363.287415 
	C262.907654,356.564697 252.488190,349.990326 243.041351,342.010651 
	C240.788162,340.107391 238.062592,338.252075 235.270142,337.609375 
	C230.123886,336.425049 226.727173,333.500397 224.084320,329.242737 
	C222.568024,326.800018 220.297653,325.888031 217.631531,326.921570 
	C213.743042,328.428894 210.631836,327.219391 207.394135,325.014832 
	C202.866989,321.932281 198.140228,319.127533 193.389771,316.393494 
	C190.049042,314.470795 188.121048,316.344574 186.865677,319.360138 
	C185.683838,322.199066 185.156906,325.013611 188.601974,326.602631 
	C194.443176,329.296875 199.573730,333.170471 205.395081,336.000183 
	C220.052338,343.125031 234.265823,351.162781 249.375092,359.101044 
M242.668198,248.965546 
	C241.005737,249.887573 240.970474,251.518646 240.480850,253.135925 
	C239.651718,255.874680 238.372894,258.695618 233.707581,258.503448 
	C237.087509,250.151474 242.382767,242.946320 242.464005,234.029266 
	C239.794495,238.416367 237.721313,243.031403 236.054276,247.788773 
	C234.360382,252.622787 231.862305,256.676361 227.774918,259.919586 
	C223.301941,263.468781 220.737213,268.317657 219.067230,274.659943 
	C223.212769,273.240875 224.552155,270.087036 226.966187,268.236267 
	C229.421616,266.353729 231.954987,264.690704 235.627182,263.500031 
	C234.424728,270.940491 228.879715,276.327026 228.997742,283.469116 
	C231.836105,278.417877 232.571503,272.229431 238.093109,268.339233 
	C234.982895,279.090088 242.810593,287.141663 243.554855,297.834869 
	C249.201675,289.201172 248.453857,280.281433 251.075378,272.111328 
	C248.103149,273.584686 247.759842,277.292603 243.903717,278.238220 
	C243.136902,271.831757 249.270340,267.733521 249.152863,261.648895 
	C245.975220,262.529602 246.266815,266.531921 242.438843,267.185516 
	C243.885712,261.982208 247.096832,258.126953 248.954514,253.691711 
	C249.850250,251.553177 251.640549,249.601715 249.259613,247.432739 
	C246.788635,245.181793 245.045670,247.153671 242.668198,248.965546 
M336.856110,371.544128 
	C337.644806,373.482391 337.812439,375.813599 340.267975,376.904419 
	C342.725128,374.490082 346.021240,373.734222 349.092407,372.542389 
	C355.388611,370.099060 359.915558,365.552704 363.902283,360.340637 
	C364.707245,359.288300 365.387360,358.220123 365.019348,356.689636 
	C363.388000,349.904968 356.977509,347.032562 351.082916,350.827576 
	C347.264740,353.285767 343.277679,355.324524 339.885956,358.747467 
	C336.092377,362.575958 334.079620,365.788788 336.856110,371.544128 
M267.421997,230.523483 
	C271.697449,235.441330 278.235870,239.422668 273.636993,247.744370 
	C272.805878,249.248245 273.919800,251.832947 275.604889,253.064804 
	C277.636627,254.550034 279.191833,252.592819 280.255524,251.399307 
	C286.402313,244.502289 292.359039,237.435822 298.380096,230.426743 
	C297.248749,230.628342 294.845154,231.979004 292.367004,232.562363 
	C287.478912,233.713013 282.477173,235.695663 279.048035,229.628021 
	C278.290771,228.288055 276.616333,227.362411 275.201050,226.520218 
	C272.334656,224.814545 268.694153,226.437195 267.421997,230.523483 
M250.627991,220.927719 
	C253.102829,221.868332 255.532516,222.960403 258.062927,223.714554 
	C261.993286,224.885925 268.512360,221.776733 268.649994,218.831787 
	C268.991150,211.531540 265.324951,207.428711 258.110413,207.067657 
	C256.952972,207.009750 255.786331,207.114975 254.631165,207.037460 
	C250.997986,206.793625 248.275986,207.598495 246.968887,211.638489 
	C245.687195,215.599869 246.475403,218.425980 250.627991,220.927719 
M259.473816,260.518768 
	C257.881195,258.391418 259.620514,255.375504 257.774231,253.085983 
	C254.614288,257.443359 255.118469,259.935425 258.254974,263.167938 
	C263.853394,268.937775 280.485840,267.931030 286.507782,261.934448 
	C289.732361,258.723450 293.416992,255.513214 298.906738,256.417114 
	C300.787415,256.726746 302.217041,254.778809 302.463501,252.865829 
	C302.737457,250.739746 300.920868,249.965225 299.260803,249.779236 
	C295.512604,249.359314 291.599396,250.189651 289.209473,252.846481 
	C285.655670,256.797211 281.023834,259.017029 276.904510,262.007141 
	C271.846588,265.678558 263.350983,265.011719 259.473816,260.518768 
M183.427673,143.528122 
	C185.474075,145.575912 186.765427,143.645035 187.984894,142.502487 
	C193.559906,137.279236 199.097794,132.013565 204.534637,126.647263 
	C206.356705,124.848839 208.388931,122.905075 207.120941,119.350006 
	C201.858093,120.275345 197.519989,122.974083 194.093002,126.325752 
	C189.360184,130.954544 183.573425,135.238174 183.427673,143.528122 
M302.046082,200.874817 
	C304.523499,201.784912 307.115387,201.602600 307.748077,198.872131 
	C308.350098,196.274094 305.365967,195.973312 303.646240,195.509094 
	C295.154480,193.216812 286.565887,191.326797 277.685913,192.751892 
	C274.911163,193.197189 271.856873,193.496521 270.032898,197.471481 
	C281.037842,197.273987 291.423706,196.999191 302.046082,200.874817 
M191.668060,268.276123 
	C194.659485,270.677765 195.270172,267.285767 196.705002,266.120361 
	C198.286850,264.835510 199.131866,262.033173 201.795273,263.037537 
	C205.523300,264.443298 206.720383,261.899994 207.617386,259.452515 
	C208.845963,256.100311 209.682327,252.654480 211.276779,249.373840 
	C212.450043,246.959869 212.307419,243.906021 209.028122,241.551849 
	C204.561142,251.334702 198.285797,259.577911 191.668060,268.276123 
M308.258179,132.584396 
	C304.708313,131.463882 301.208923,130.940186 299.670227,135.409912 
	C298.830536,137.849045 303.801910,143.427170 306.762848,143.881378 
	C309.173920,144.251221 311.563049,144.764175 313.929840,145.207672 
	C317.304321,139.379501 315.435455,134.823990 308.258179,132.584396 
M289.154510,297.418213 
	C289.904053,299.119171 290.996582,301.623322 292.444153,301.525360 
	C297.285034,301.197723 299.730438,304.735168 302.989288,307.002625 
	C304.239868,307.872803 305.596405,308.851105 307.014130,307.529053 
	C308.262115,306.365234 308.294373,304.352539 307.489532,303.353455 
	C303.683899,298.629242 299.937439,293.725159 294.030609,291.350983 
	C293.374298,291.087189 292.324219,291.032806 292.051239,292.177673 
	C292.687469,294.430969 296.071503,294.477570 296.323944,297.324005 
	C292.966583,297.605560 291.822174,293.767700 288.829437,293.762543 
	C288.209198,294.937988 288.554047,295.866760 289.154510,297.418213 
M259.997131,282.695190 
	C256.233215,290.675873 258.100494,301.903900 264.639954,308.858795 
	C264.417175,302.293121 260.269623,296.638214 261.469879,290.041748 
	C263.960785,290.912598 263.470734,293.891663 265.964874,294.368286 
	C266.886108,290.325287 267.782623,286.390747 268.820190,281.837189 
	C265.623505,282.729065 263.122314,280.477509 259.997131,282.695190 
M317.678436,230.707581 
	C314.851624,238.307251 314.368500,238.596848 307.292053,236.734222 
	C305.815979,236.345703 304.335419,235.756348 303.623596,238.739960 
	C308.584839,239.709015 313.604584,240.299118 318.370209,241.733475 
	C322.861572,243.085266 323.146027,240.740631 322.402954,237.774094 
	C321.118439,232.645935 319.623810,227.535019 317.706573,222.615921 
	C316.773071,220.220825 315.569214,217.446960 311.388428,216.193741 
	C312.279510,221.896103 316.337799,225.387802 317.678436,230.707581 
M298.655640,320.480682 
	C299.555939,320.758911 300.442871,321.507721 301.808044,320.151215 
	C294.775360,311.352875 287.718567,302.524292 280.418610,293.391541 
	C278.781097,295.911285 278.695038,297.644897 279.789185,299.005127 
	C285.631622,306.268433 289.472412,315.284058 298.655640,320.480682 
M405.339294,275.247101 
	C397.750458,270.708679 392.368774,269.486298 386.039581,270.872375 
	C388.950226,272.859070 392.083984,274.099518 395.547455,274.920074 
	C399.348328,275.820587 403.157043,277.074402 404.922943,281.391418 
	C405.568329,282.969177 407.190125,284.192291 408.499207,285.437683 
	C409.331238,286.229248 410.427460,286.846069 411.661469,286.316925 
	C412.997528,285.744019 412.752686,284.470947 412.871765,283.324982 
	C413.403320,278.210754 409.540741,277.065338 405.339294,275.247101 
M381.808777,343.021667 
	C390.121094,339.898224 397.687988,335.634216 403.629456,328.810944 
	C397.514893,333.177826 390.263580,335.099884 383.700714,338.440613 
	C382.374359,339.115784 381.010834,339.733673 379.749054,340.514618 
	C378.873291,341.056610 378.226227,341.947998 378.913849,343.001617 
	C379.460205,343.838776 380.369110,343.545380 381.808777,343.021667 
M253.888885,299.378540 
	C252.202881,291.677124 256.618927,284.017761 254.629547,276.301422 
	C248.940613,283.870331 250.649323,292.036407 252.051620,300.125000 
	C252.321671,301.682648 253.332962,302.198334 253.888885,299.378540 
M181.561844,255.983459 
	C188.407379,250.553162 195.164291,245.047745 198.241455,236.358521 
	C193.337753,246.181961 183.482697,250.836563 175.654495,257.657471 
	C177.952682,258.341370 179.408508,257.200104 181.561844,255.983459 
M231.198334,248.573547 
	C228.494019,248.865173 227.511597,252.458405 224.104767,251.843323 
	C219.160217,250.950607 215.580826,255.926941 217.311157,261.779785 
	C222.390518,257.796021 227.137665,253.871155 231.198334,248.573547 
M368.699463,350.836823 
	C370.067352,351.660736 371.251740,353.133087 373.552765,351.910156 
	C374.732758,346.135651 369.555817,344.145081 366.949677,340.212372 
	C362.655853,344.786041 365.300507,347.607941 368.699463,350.836823 
M176.542252,314.188599 
	C175.960480,309.871613 171.604996,307.515106 168.155746,309.652069 
	C167.064850,310.327942 166.671692,311.396545 166.659729,312.589783 
	C166.646606,313.901489 167.451187,314.774719 168.604813,315.172577 
	C171.136658,316.045837 173.697739,316.580170 176.542252,314.188599 
M181.293045,245.788391 
	C185.710297,241.452408 190.570175,237.507828 193.470383,231.796692 
	C187.826447,239.296783 179.678345,244.268845 174.099136,251.877487 
	C176.322418,250.004929 178.545715,248.132370 181.293045,245.788391 
M305.211853,278.745392 
	C301.107971,280.854553 303.514679,283.602295 304.627075,286.066162 
	C305.159363,287.244995 306.597229,287.547363 307.553925,286.565430 
	C309.845642,284.213257 308.511261,282.082916 306.827972,280.080536 
	C306.513672,279.706635 306.153839,279.371002 305.211853,278.745392 
M217.999893,234.165039 
	C217.085464,234.139420 216.190155,233.237732 215.175400,234.152832 
	C215.484863,236.190353 216.790512,237.692627 218.242432,238.952118 
	C219.848511,240.345337 221.775467,240.149399 222.952148,238.431366 
	C224.336655,236.409958 222.635681,235.541122 221.023758,234.921387 
	C220.266815,234.630356 219.446548,234.504028 217.999893,234.165039 
M276.313812,310.134949 
	C276.703766,311.794434 276.894897,313.569641 278.975250,314.779694 
	C279.817444,311.320801 280.238708,308.283173 279.050507,305.105133 
	C276.598206,305.882202 276.110901,307.473907 276.313812,310.134949 
M264.354980,319.581665 
	C262.834930,317.781677 262.012421,315.342010 259.588806,313.986053 
	C259.506287,318.716644 261.234436,320.738281 264.354980,319.581665 
M229.063141,239.864624 
	C227.968582,241.768677 226.874008,243.672729 225.779449,245.576782 
	C229.063507,243.753113 230.996796,241.194077 231.137238,236.697495 
	C230.257599,238.010574 229.813156,238.674026 229.063141,239.864624 
M145.922684,316.312622 
	C147.952499,315.986084 149.756271,315.408295 149.491180,312.455078 
	C148.240677,313.840332 144.392792,311.717926 145.922684,316.312622 
M296.823090,106.728729 
	C296.623657,105.795418 296.298676,104.135727 295.262268,104.937508 
	C293.154388,106.568222 294.134857,108.446243 295.528168,110.100670 
	C297.124756,109.460533 296.669525,108.316246 296.823090,106.728729 
z"/>
</svg>